<svg id="icons" enable-background="new 0 0 64 64" height="512" viewBox="0 0 64 64" width="512" xmlns="http://www.w3.org/2000/svg"><g><g><g><path d="m63 56.001h-62c-.553 0-1-.447-1-1v-46.002c0-.553.447-1 1-1h62c.553 0 1 .447 1 1v46.002c0 .553-.447 1-1 1zm-61-2h60v-44.002h-60z"/></g><g><path d="m60 53.001h-56c-.553 0-1-.447-1-1v-40.002c0-.553.447-1 1-1h56c.553 0 1 .447 1 1v40.002c0 .553-.447 1-1 1zm-55-2h54v-38.002h-54z"/></g><g><path d="m1 56.001c-.256 0-.512-.098-.707-.293-.391-.391-.391-1.023 0-1.414l3-3c.391-.391 1.023-.391 1.414 0s.391 1.023 0 1.414l-3 3c-.195.195-.451.293-.707.293z"/></g><g><path d="m63 56.001c-.256 0-.512-.098-.707-.293l-3-3c-.391-.391-.391-1.023 0-1.414s1.023-.391 1.414 0l3 3c.391.391.391 1.023 0 1.414-.195.195-.451.293-.707.293z"/></g><g><path d="m60 12.999c-.256 0-.512-.098-.707-.293-.391-.391-.391-1.023 0-1.414l3-3c.391-.391 1.023-.391 1.414 0s.391 1.023 0 1.414l-3 3c-.195.195-.451.293-.707.293z"/></g><g><path d="m4 12.999c-.256 0-.512-.098-.707-.293l-3-3c-.391-.391-.391-1.023 0-1.414s1.023-.391 1.414 0l3 3c.391.391.391 1.023 0 1.414-.195.195-.451.293-.707.293z"/></g></g><g><path d="m4 53.001c-.553 0-1-.447-1-1 0-22.608 18.394-41.002 41.002-41.002.553 0 1 .447 1 1s-.447 1-1 1c-21.506 0-39.002 17.496-39.002 39.002 0 .553-.447 1-1 1z"/></g><g><path d="m10 53.001c-.553 0-1-.447-1-1 0-19.3 15.702-35.002 35.002-35.002.553 0 1 .447 1 1s-.447 1-1 1c-18.197 0-33.002 14.805-33.002 33.002 0 .553-.447 1-1 1z"/></g><g><path d="m16 53.001c-.553 0-1-.447-1-1 0-15.992 13.01-29.002 29.002-29.002.553 0 1 .447 1 1s-.447 1-1 1c-14.889 0-27.002 12.113-27.002 27.002 0 .553-.447 1-1 1z"/></g><g><path d="m22 53.001c-.553 0-1-.447-1-1 0-12.684 10.318-23.002 23.002-23.002.553 0 1 .447 1 1s-.447 1-1 1c-11.58 0-21.002 9.422-21.002 21.002 0 .553-.447 1-1 1z"/></g><g><path d="m22 53.001c-.553 0-1-.447-1-1 0-12.684 10.318-23.002 23.002-23.002.553 0 1 .447 1 1s-.447 1-1 1c-11.58 0-21.002 9.422-21.002 21.002 0 .553-.447 1-1 1z"/></g><g><path d="m22 53.001c-.553 0-1-.447-1-1s.447-1 1-1c11.58 0 21.002-9.422 21.002-21.002 0-.553.447-1 1-1s1 .447 1 1c0 12.684-10.318 23.002-23.002 23.002z"/></g><g><path d="m44.002 53.001c-.553 0-1-.447-1-1v-22.002c0-.553.447-1 1-1s1 .447 1 1v22.002c0 .553-.447 1-1 1z"/></g><g><path d="m44.002 53.001c-.256 0-.512-.098-.707-.293l-6.44-6.44c-.391-.391-.391-1.023 0-1.414s1.023-.391 1.414 0l6.44 6.44c.391.391.391 1.023 0 1.414-.195.195-.451.293-.707.293z"/></g><g><path d="m60 30.999h-15.998c-.553 0-1-.447-1-1s.447-1 1-1h15.998c.553 0 1 .447 1 1s-.447 1-1 1z"/></g><g><path d="m60 25h-15.998c-.553 0-1-.447-1-1s.447-1 1-1h15.998c.553 0 1 .447 1 1s-.447 1-1 1z"/></g><g><path d="m60 19.001h-15.998c-.553 0-1-.447-1-1s.447-1 1-1h15.998c.553 0 1 .447 1 1s-.447 1-1 1z"/></g><g><path d="m60.003 47c-9.374 0-17.001-7.627-17.001-17.001 0-.553.447-1 1-1s1 .447 1 1c0 8.272 6.729 15.001 15.001 15.001.553 0 1 .447 1 1s-.447 1-1 1z"/></g><g><path d="m60.003 41.002c-6.067 0-11.003-4.936-11.003-11.003 0-.553.447-1 1-1s1 .447 1 1c0 4.964 4.039 9.003 9.003 9.003.553 0 1 .447 1 1s-.447 1-1 1z"/></g><g><path d="m60.003 35.002c-2.759 0-5.003-2.244-5.003-5.003 0-.553.447-1 1-1s1 .447 1 1c0 1.656 1.347 3.003 3.003 3.003.553 0 1 .447 1 1s-.447 1-1 1z"/></g><g><path d="m54 53.001c-.553 0-1-.447-1-1v-7.164c0-.553.447-1 1-1s1 .447 1 1v7.164c0 .553-.447 1-1 1z"/></g><g><path d="m49 52.917c-.553 0-1-.447-1-1v-10.296c0-.553.447-1 1-1s1 .447 1 1v10.296c0 .553-.447 1-1 1z"/></g><g><path d="m8.999 33.607c-.553 0-1-.447-1-1v-20.608c0-.553.447-1 1-1s1 .447 1 1v20.608c0 .553-.447 1-1 1z"/></g><g><path d="m13.998 26.529c-.553 0-1-.447-1-1v-13.53c0-.553.447-1 1-1s1 .447 1 1v13.53c0 .553-.447 1-1 1z"/></g><g><path d="m18.997 21.763c-.553 0-1-.447-1-1v-8.764c0-.553.447-1 1-1s1 .447 1 1v8.764c0 .552-.447 1-1 1z"/></g><g><path d="m24.002 18.343c-.553 0-1-.447-1-1v-5.344c0-.553.447-1 1-1s1 .447 1 1v5.344c0 .553-.447 1-1 1z"/></g><g><path d="m44.002 30.999c-.553 0-1-.447-1-1 0-3.858 3.14-6.998 6.998-6.998.553 0 1 .447 1 1s-.447 1-1 1c-2.756 0-4.998 2.242-4.998 4.998 0 .553-.447 1-1 1z"/></g><g><path d="m44.002 24.999c-.553 0-1-.447-1-1 0-3.858 3.14-6.998 6.998-6.998.553 0 1 .447 1 1s-.447 1-1 1c-2.756 0-4.998 2.242-4.998 4.998 0 .553-.447 1-1 1z"/></g><g><path d="m44.002 18.999c-.553 0-1-.447-1-1 0-3.858 3.14-6.998 6.998-6.998.553 0 1 .447 1 1s-.447 1-1 1c-2.756 0-4.998 2.242-4.998 4.998 0 .553-.447 1-1 1z"/></g><g><path d="m33.001 45c-2.206 0-4-1.794-4-4s1.794-4 4-4 4 1.794 4 4-1.794 4-4 4zm0-6c-1.103 0-2 .897-2 2s.897 2 2 2 2-.897 2-2-.897-2-2-2z"/></g></g></svg>